<svg width="86" height="101" viewBox="0 0 86 101" fill="none" xmlns="http://www.w3.org/2000/svg">
<path d="M0.96 90.2C0.96 93.384 2.464 95.096 5.36 95.096C8.272 95.096 9.792 93.384 9.792 90.2V83.8H7.952V90.296C7.952 92.376 7.152 93.464 5.36 93.464C3.6 93.464 2.8 92.376 2.8 90.296V83.8H0.96V90.2ZM15.982 86.712C14.702 86.712 13.854 87.304 13.31 88.024L13.102 86.808H11.598V98.2H13.326V93.848C13.838 94.584 14.718 95.096 15.982 95.096C18.222 95.096 19.854 93.432 19.854 90.904C19.854 88.28 18.222 86.712 15.982 86.712ZM15.694 93.64C14.254 93.64 13.31 92.504 13.31 90.872C13.31 89.288 14.254 88.184 15.694 88.184C17.134 88.184 18.094 89.288 18.094 90.904C18.094 92.504 17.134 93.64 15.694 93.64ZM21.2386 95H22.9666V83.8H21.2386V95ZM28.5325 95.096C31.0285 95.096 32.7085 93.416 32.7085 90.904C32.7085 88.408 31.0285 86.712 28.5325 86.712C26.0365 86.712 24.3565 88.408 24.3565 90.904C24.3565 93.416 26.0365 95.096 28.5325 95.096ZM28.5325 93.624C27.0765 93.624 26.1325 92.488 26.1325 90.904C26.1325 89.32 27.0765 88.184 28.5325 88.184C29.9885 88.184 30.9485 89.32 30.9485 90.904C30.9485 92.488 29.9885 93.624 28.5325 93.624ZM41.586 93.496C41.234 93.496 41.058 93.384 41.058 92.968V89.688C41.058 87.752 39.81 86.712 37.634 86.712C35.57 86.712 34.194 87.704 34.018 89.304H35.714C35.842 88.584 36.53 88.104 37.554 88.104C38.69 88.104 39.346 88.664 39.346 89.576V90.072H37.282C34.994 90.072 33.778 91.016 33.778 92.696C33.778 94.216 35.026 95.096 36.818 95.096C38.146 95.096 38.978 94.52 39.522 93.688C39.522 94.504 39.906 95 41.026 95H41.938V93.496H41.586ZM39.346 91.64C39.33 92.904 38.498 93.752 37.058 93.752C36.114 93.752 35.538 93.272 35.538 92.584C35.538 91.752 36.13 91.352 37.202 91.352H39.346V91.64ZM49.0408 87.944C48.5128 87.224 47.6328 86.712 46.3848 86.712C44.1608 86.712 42.5128 88.376 42.5128 90.904C42.5128 93.528 44.1608 95.096 46.3848 95.096C47.6808 95.096 48.5288 94.488 49.0568 93.768L49.2648 95H50.7688V83.8H49.0408V87.944ZM46.6727 93.64C45.2328 93.64 44.2888 92.52 44.2888 90.904C44.2888 89.304 45.2328 88.184 46.6727 88.184C48.1128 88.184 49.0568 89.304 49.0568 90.936C49.0568 92.52 48.1128 93.64 46.6727 93.64ZM62.7751 85.656C63.3671 85.656 63.8311 85.224 63.8311 84.616C63.8311 84.008 63.3671 83.576 62.7751 83.576C62.1831 83.576 61.7191 84.008 61.7191 84.616C61.7191 85.224 62.1831 85.656 62.7751 85.656ZM58.8871 86.808V86.12C58.8871 85.56 59.1111 85.32 59.6711 85.32H60.8871V83.8H59.4311C57.8471 83.8 57.1431 84.552 57.1431 85.992V86.808H55.7191V88.328H57.1431V95H58.8871V88.328H61.8951V95H63.6391V86.808H58.8871ZM65.3168 95H67.0448V83.8H65.3168V95ZM72.6266 95.096C74.6586 95.096 76.0346 93.864 76.3226 92.248H74.5946C74.3546 93.16 73.5866 93.688 72.5306 93.688C71.1706 93.688 70.2906 92.776 70.2426 91.384V91.272H76.4186C76.4506 91.048 76.4666 90.824 76.4666 90.616C76.4186 88.216 74.8346 86.712 72.4666 86.712C70.0506 86.712 68.4346 88.392 68.4346 90.92C68.4346 93.432 70.0506 95.096 72.6266 95.096ZM70.3066 90.008C70.4346 88.84 71.3786 88.104 72.4826 88.104C73.6826 88.104 74.5306 88.792 74.6746 90.008H70.3066ZM77.4648 92.296C77.5128 94.072 79.0168 95.096 81.2088 95.096C83.1928 95.096 84.6808 94.104 84.6808 92.536C84.6808 90.712 83.1608 90.328 81.2888 90.104C80.1048 89.976 79.3207 89.88 79.3207 89.112C79.3207 88.456 79.9928 88.04 81.0168 88.04C82.0408 88.04 82.7448 88.568 82.8408 89.32H84.5368C84.4248 87.64 83.0008 86.712 80.9848 86.712C79.0168 86.696 77.6248 87.704 77.6248 89.256C77.6248 90.952 79.0968 91.352 80.9688 91.576C82.2328 91.736 82.9848 91.8 82.9848 92.68C82.9848 93.336 82.2808 93.752 81.2088 93.752C79.9608 93.752 79.2248 93.144 79.1608 92.296H77.4648Z" fill="#121418"/>
<path fill-rule="evenodd" clip-rule="evenodd" d="M42 64C59.6731 64 74 49.6731 74 32C74 14.3269 59.6731 0 42 0C24.3269 0 10 14.3269 10 32C10 49.6731 24.3269 64 42 64Z" fill="#FFB938"/>
<path d="M42 39.5003C45.4518 39.5003 48.25 36.7021 48.25 33.2503C48.25 29.7985 45.4518 27.0003 42 27.0003C38.5482 27.0003 35.75 29.7985 35.75 33.2503C35.75 36.7021 38.5482 39.5003 42 39.5003Z" fill="#FCF8F2"/>
<path d="M54.5 23.25H50.5358C50.0347 23.25 49.5641 23.0547 49.2095 22.7007L46.9243 20.4155C46.3341 19.8253 45.5492 19.5 44.7142 19.5H39.2858C38.4508 19.5 37.6659 19.8253 37.0757 20.4155L34.7905 22.7007C34.4359 23.0547 33.9653 23.25 33.4642 23.25H29.5C28.1212 23.25 27 24.3712 27 25.75V41.9999C27 43.3787 28.1212 44.5 29.5 44.5H54.5C55.8788 44.5 57.0001 43.3788 57.0001 41.9999V25.75C57 24.3712 55.8788 23.25 54.5 23.25ZM42 40.75C37.8643 40.75 34.5 37.3857 34.5 33.25C34.5 29.1142 37.8643 25.75 42 25.75C46.1357 25.75 49.5 29.1142 49.5 33.25C49.5 37.3857 46.1357 40.75 42 40.75ZM52 29.5C51.311 29.5 50.75 28.939 50.75 28.25C50.75 27.5609 51.311 27 52 27C52.6891 27 53.25 27.5609 53.25 28.25C53.25 28.939 52.6891 29.5 52 29.5Z" fill="#FCF8F2"/>
<circle cx="65" cy="52" r="12" fill="#111538"/>
<path d="M69.5192 52.767C69.4034 52.5477 69.1678 52.4094 68.9098 52.4094H66.8671V49.8228C66.8671 49.4658 66.5628 49.1761 66.1862 49.1761H63.4627C63.0868 49.1761 62.7818 49.4658 62.7818 49.8228V52.4094H60.7391C60.4817 52.4094 60.2461 52.5477 60.1304 52.767C60.0153 52.9862 60.0398 53.2481 60.1951 53.444L64.2804 58.6172C64.4085 58.7801 64.6107 58.8758 64.8245 58.8758C65.0389 58.8758 65.2412 58.7801 65.3692 58.6172L69.4546 53.444C69.6098 53.2481 69.6343 52.9862 69.5192 52.767Z" fill="white"/>
<path d="M66.1857 47.2383H63.4621C63.0856 47.2383 62.7812 47.5274 62.7812 47.885C62.7812 48.2426 63.0856 48.5316 63.4621 48.5316H66.1857C66.5622 48.5316 66.8666 48.2426 66.8666 47.885C66.8666 47.5274 66.5622 47.2383 66.1857 47.2383Z" fill="white"/>
<path d="M66.1857 45.2986H63.4621C63.0856 45.2986 62.7812 45.5877 62.7812 45.9453C62.7812 46.3029 63.0856 46.5919 63.4621 46.5919H66.1857C66.5622 46.5919 66.8666 46.3029 66.8666 45.9453C66.8666 45.5877 66.5622 45.2986 66.1857 45.2986Z" fill="white"/>
</svg>
