<?xml version="1.0" standalone="no"?>
<!DOCTYPE svg PUBLIC "-//W3C//DTD SVG 20010904//EN"
 "http://www.w3.org/TR/2001/REC-SVG-20010904/DTD/svg10.dtd">
<svg version="1.0" xmlns="http://www.w3.org/2000/svg"
 width="700.000000pt" height="700.000000pt" viewBox="0 0 700.000000 700.000000"
 preserveAspectRatio="xMidYMid meet">
<metadata>
Created by potrace 1.14, written by Peter Selinger 2001-2017
</metadata>
<g transform="translate(0.000000,700.000000) scale(0.100000,-0.100000)"
fill="#000000" stroke="none">
<path d="M1705 6781 c-2 -2 -30 -5 -62 -7 -32 -2 -76 -6 -98 -9 -22 -3 -52 -7
-67 -8 -16 -1 -28 -5 -28 -9 0 -3 -22 -9 -50 -13 -27 -4 -50 -11 -50 -17 0 -6
-6 -8 -14 -5 -7 3 -23 -1 -35 -9 -11 -8 -21 -12 -21 -8 0 3 -7 1 -15 -6 -8 -6
-19 -9 -25 -5 -5 3 -10 1 -10 -4 0 -6 -9 -11 -20 -11 -11 0 -23 -6 -26 -14 -3
-8 -12 -12 -20 -9 -8 3 -14 0 -14 -6 0 -6 -3 -10 -7 -9 -12 2 -46 -14 -61 -29
-7 -7 -20 -13 -28 -13 -8 0 -14 -4 -14 -10 0 -5 -7 -10 -15 -10 -8 0 -23 -10
-35 -22 -11 -12 -20 -18 -20 -13 0 5 -11 -2 -25 -15 -14 -13 -25 -21 -25 -18
0 4 -15 -8 -34 -25 -58 -54 -87 -77 -99 -77 -5 0 -8 -3 -5 -6 7 -6 -34 -52
-43 -47 -3 1 -12 -9 -19 -22 -7 -14 -19 -25 -27 -25 -7 0 -12 -3 -11 -7 2 -5
-7 -19 -19 -33 -12 -14 -32 -36 -43 -50 -12 -14 -36 -45 -53 -70 -17 -25 -34
-47 -38 -50 -4 -3 -9 -12 -11 -20 -4 -18 -21 -39 -28 -35 -3 2 -7 -8 -8 -23
-1 -14 -9 -30 -17 -35 -8 -4 -15 -15 -15 -22 0 -8 -5 -15 -12 -15 -6 0 -9 -3
-5 -6 3 -3 -5 -25 -19 -49 -13 -24 -24 -51 -24 -59 0 -9 -4 -16 -8 -16 -10 0
-37 -77 -35 -97 0 -7 -6 -13 -14 -13 -8 0 -11 -5 -8 -10 4 -6 2 -16 -3 -23 -5
-7 -8 -20 -7 -29 2 -10 -1 -18 -6 -18 -5 0 -8 -3 -8 -7 1 -5 0 -11 -1 -15 -1
-5 -4 -12 -5 -18 -1 -5 -3 -11 -5 -12 -1 -2 -3 -12 -5 -23 -9 -44 -15 -72 -23
-107 -6 -20 -7 -39 -4 -42 3 -4 1 -6 -5 -6 -5 0 -8 -17 -7 -37 1 -21 -2 -43
-7 -48 -4 -6 -8 -20 -8 -30 0 -58 -9 -174 -15 -184 -4 -6 -3 -19 3 -29 5 -10
6 -24 1 -32 -4 -7 -7 -18 -5 -24 2 -6 7 -63 10 -126 6 -130 7 -140 19 -159 7
-11 6 -12 -5 -6 -11 7 -12 6 -3 -6 6 -8 10 -24 9 -36 -1 -13 2 -23 7 -23 5 0
6 -5 3 -10 -4 -6 -1 -17 5 -25 10 -12 10 -15 1 -15 -8 0 -7 -5 2 -15 9 -8 13
-24 10 -35 -3 -11 -1 -20 5 -20 6 0 9 -9 7 -20 -2 -11 -1 -20 3 -20 4 0 9 -12
10 -27 1 -16 7 -30 12 -31 6 -2 8 -8 5 -12 -3 -5 -1 -17 4 -27 16 -30 36 -88
33 -95 -1 -5 2 -8 8 -8 5 0 10 -9 10 -20 0 -11 5 -20 10 -20 6 0 9 -4 8 -8 -3
-8 42 -103 53 -112 6 -5 19 -37 18 -46 0 -3 8 -13 19 -22 10 -9 17 -23 14 -31
-2 -8 0 -11 5 -8 5 3 14 -7 21 -23 7 -15 23 -39 36 -53 13 -14 21 -28 18 -31
-3 -3 0 -6 6 -6 6 0 14 -9 17 -20 3 -11 13 -20 21 -20 8 0 12 -5 9 -10 -3 -6
1 -13 9 -16 9 -3 16 -11 16 -16 0 -5 18 -27 40 -48 22 -21 40 -44 40 -51 0 -7
3 -10 6 -6 3 3 26 -14 50 -39 25 -24 49 -44 54 -44 6 0 10 -6 10 -14 0 -8 9
-18 20 -21 11 -3 20 -11 20 -17 0 -6 3 -9 6 -5 3 3 20 -7 38 -23 17 -17 36
-30 42 -30 7 0 15 -7 18 -16 3 -8 10 -12 16 -9 5 3 10 2 10 -2 0 -5 15 -17 34
-27 19 -10 36 -26 38 -35 2 -9 3 -609 3 -1333 0 -725 2 -1318 6 -1318 3 0 5
-12 5 -27 -1 -16 3 -34 8 -40 4 -7 5 -13 1 -13 -4 0 -2 -7 5 -15 7 -8 9 -15 6
-15 -4 0 -2 -9 4 -21 6 -11 13 -30 15 -41 3 -11 11 -28 20 -38 8 -9 12 -20 8
-23 -3 -4 -2 -7 4 -7 6 0 16 -13 23 -30 7 -16 16 -30 21 -30 5 0 9 -5 9 -11 0
-10 75 -87 129 -132 32 -26 153 -87 173 -87 9 0 20 -5 23 -10 4 -6 11 -8 16
-5 5 4 9 2 9 -2 0 -11 12 -13 160 -17 69 -2 130 -1 135 2 6 4 17 7 25 7 8 0
21 4 28 8 6 5 16 6 21 3 5 -4 11 -2 13 4 2 6 12 12 23 14 18 4 55 22 131 64
13 7 24 17 24 23 0 5 3 8 8 6 16 -5 162 157 162 181 0 6 4 12 8 12 7 0 29 45
37 75 2 6 9 24 15 40 14 32 20 60 21 88 0 9 5 17 10 17 6 0 6 7 0 19 -6 10 -7
22 -3 26 4 3 7 598 8 1321 0 723 2 1315 5 1316 2 2 18 13 36 26 18 12 36 22
40 22 5 0 24 14 43 30 51 44 58 50 66 50 4 0 17 12 30 28 13 15 24 23 24 17 0
-5 7 1 16 13 8 12 21 19 27 16 7 -4 9 -4 6 0 -8 8 112 132 124 128 5 -1 6 1 3
6 -3 5 5 18 17 30 34 32 46 49 40 56 -4 3 1 6 11 6 9 0 15 4 12 8 -3 5 3 16
12 25 27 25 42 45 42 57 0 6 7 13 15 16 8 4 15 15 15 25 0 10 5 19 10 19 6 0
10 7 10 15 0 7 8 19 18 24 9 6 13 11 7 11 -7 0 -7 3 0 8 6 4 23 34 40 67 16
33 33 63 38 66 5 3 9 10 8 15 -1 20 12 54 18 50 4 -3 7 3 8 12 1 9 7 31 14 47
15 36 14 33 24 70 4 17 10 35 14 40 3 6 7 16 8 23 2 6 4 18 6 25 1 6 6 17 10
24 4 6 4 18 1 27 -3 9 -1 16 5 16 6 0 10 3 9 8 -3 16 15 108 24 120 7 8 7 12
-1 12 -7 0 -9 4 -6 10 9 14 15 48 17 93 1 21 5 40 9 43 5 2 4 15 -1 28 -5 13
-7 26 -4 28 6 7 10 118 4 118 -7 0 -4 75 4 88 3 6 2 14 -4 17 -8 5 -7 11 1 21
7 8 7 14 1 14 -5 0 -10 10 -10 23 0 25 -10 117 -18 162 -2 17 -6 44 -7 60 -1
17 -6 33 -10 36 -4 3 -9 22 -10 42 -1 21 -5 37 -8 37 -4 0 -9 14 -12 30 -9 44
-12 54 -20 68 -5 6 -6 16 -3 21 4 5 2 11 -3 13 -6 1 -11 16 -13 31 -3 16 -10
32 -17 36 -7 5 -12 11 -11 15 4 15 -12 66 -21 66 -6 0 -7 5 -4 10 3 6 2 10 -4
10 -6 0 -8 7 -5 15 4 8 2 15 -2 15 -10 0 -40 60 -36 73 1 4 -1 7 -6 7 -4 0
-13 15 -21 33 -8 17 -17 34 -21 37 -4 3 -19 26 -34 53 -15 26 -32 47 -38 47
-5 0 -6 5 -3 10 3 6 1 10 -4 10 -6 0 -11 4 -11 10 0 9 -19 35 -47 65 -7 7 -9
15 -6 19 4 3 -1 6 -10 6 -10 0 -17 6 -17 13 0 7 -9 19 -20 27 -11 8 -20 21
-20 29 0 8 -2 12 -5 9 -3 -2 -38 28 -80 69 -41 40 -77 73 -80 73 -3 0 -19 13
-36 30 -17 16 -44 35 -59 42 -16 7 -27 15 -25 18 2 4 -11 13 -30 20 -19 8 -35
17 -35 22 0 4 -6 8 -14 8 -8 0 -16 3 -18 8 -3 6 -62 36 -153 78 -63 28 -155
55 -166 48 -7 -4 -9 -3 -6 3 4 7 -12 14 -41 18 -26 4 -55 11 -66 17 -14 8 -17
7 -10 -4 6 -10 5 -11 -7 -2 -8 6 -21 12 -29 12 -8 1 -51 4 -95 7 -44 3 -95 7
-113 8 -18 1 -35 1 -37 -2z m110 -441 c0 -1 8 -3 18 -5 9 -2 17 1 17 7 0 7 4
7 13 0 7 -6 29 -12 48 -13 19 -2 39 -5 44 -8 6 -3 15 -6 20 -7 35 -7 60 -13
63 -13 1 -1 3 -1 5 0 1 0 15 -6 31 -15 16 -8 34 -12 39 -9 6 3 7 1 3 -5 -5 -8
0 -12 12 -12 11 0 25 -7 32 -15 7 -8 19 -15 28 -15 15 0 151 -89 186 -122 11
-10 24 -18 28 -18 5 0 6 -4 3 -10 -3 -5 -1 -10 5 -10 14 0 70 -58 70 -71 0 -5
7 -9 15 -9 8 0 15 -4 15 -9 0 -4 11 -20 25 -35 13 -14 21 -26 17 -26 -4 0 -2
-4 4 -8 16 -11 79 -106 76 -114 -1 -5 2 -8 7 -8 9 0 27 -40 22 -49 -2 -2 4 -8
13 -13 9 -5 16 -13 16 -18 0 -5 14 -39 30 -75 17 -36 30 -70 30 -76 0 -5 8
-22 18 -36 13 -21 14 -25 2 -18 -13 8 -13 6 -1 -8 7 -9 11 -24 7 -32 -3 -9 -2
-13 4 -10 6 3 10 0 11 -7 0 -7 2 -20 4 -28 2 -8 5 -24 7 -35 2 -11 6 -24 9
-30 3 -5 5 -22 4 -37 0 -16 2 -28 6 -28 3 0 7 -10 8 -22 0 -13 2 -43 4 -68 1
-25 7 -48 12 -52 6 -5 5 -8 -4 -8 -9 0 -10 -4 -4 -12 7 -10 11 -243 4 -243 -1
0 -4 -20 -6 -45 -7 -67 -13 -111 -20 -145 -10 -44 -11 -48 -22 -75 -6 -14 -9
-28 -6 -32 2 -5 -2 -8 -9 -8 -9 0 -9 -3 2 -10 10 -6 11 -10 2 -10 -6 0 -11 -3
-10 -7 1 -5 -4 -19 -12 -33 -7 -14 -13 -27 -13 -30 0 -3 -4 -16 -10 -30 -6
-14 -11 -27 -12 -30 -19 -46 -31 -70 -36 -70 -4 0 -10 -12 -13 -26 -4 -14 -15
-35 -26 -46 -10 -11 -26 -36 -35 -54 -9 -18 -23 -38 -33 -43 -9 -6 -13 -11 -8
-11 5 0 -1 -9 -14 -20 -13 -11 -20 -20 -16 -20 5 0 -146 -152 -194 -195 -28
-25 -165 -112 -230 -146 -36 -18 -67 -37 -68 -41 -2 -5 -9 -5 -14 -2 -7 4 -8
2 -4 -4 3 -6 0 -14 -7 -19 -17 -10 -51 -73 -40 -73 5 0 2 -4 -5 -8 -10 -7 -12
-288 -12 -1425 0 -932 -4 -1417 -10 -1417 -6 0 -10 -9 -10 -20 0 -10 -8 -24
-17 -29 -10 -6 -14 -11 -9 -11 20 0 -66 -69 -95 -75 -16 -4 -27 -10 -25 -14 3
-4 -18 -7 -45 -6 -27 0 -49 3 -49 6 0 3 -6 6 -14 6 -39 0 -126 64 -126 93 0 6
-5 10 -11 10 -5 0 -8 4 -5 9 4 5 0 11 -6 13 -10 4 -13 295 -15 1424 -2 780 -6
1426 -9 1434 -4 8 -6 18 -6 23 1 4 -3 7 -9 7 -6 0 -9 6 -6 13 4 14 -81 97
-101 97 -8 0 -26 8 -40 18 -15 10 -40 24 -57 32 -16 8 -35 20 -41 25 -6 6 -22
17 -34 25 -13 8 -47 34 -76 58 -30 23 -59 42 -66 42 -6 0 -9 2 -6 5 3 3 -20
31 -51 63 -31 31 -72 77 -91 102 -19 25 -38 47 -42 48 -5 2 -8 10 -8 17 0 8
-8 19 -17 24 -10 6 -14 11 -10 11 4 0 3 9 -3 20 -6 12 -16 18 -23 14 -7 -4 -9
-4 -5 0 4 5 -10 40 -30 80 -20 39 -35 73 -35 76 1 3 -2 10 -7 15 -10 13 -35
88 -32 98 1 4 -3 7 -10 7 -6 0 -9 3 -5 6 3 3 -1 23 -8 45 -8 21 -12 39 -10 39
3 0 0 12 -6 27 -6 16 -12 48 -15 72 -2 25 -9 50 -15 57 -7 8 -7 14 0 18 6 4 7
16 3 29 -9 25 -7 235 2 312 3 28 8 75 12 105 3 30 11 58 16 61 6 4 6 9 -2 14
-9 6 -9 9 0 15 7 4 13 19 13 34 0 14 4 26 9 26 5 0 7 4 4 9 -7 10 34 135 46
139 4 2 6 7 3 11 -7 13 84 201 97 201 5 0 8 5 8 12 0 6 23 42 50 80 28 38 50
73 50 79 0 6 5 7 10 4 6 -3 10 -2 10 2 0 5 27 36 60 71 33 34 60 59 60 55 0
-3 8 3 18 13 22 26 119 94 132 94 6 0 10 4 10 9 0 8 37 24 53 22 4 -1 7 4 7 9
0 6 7 10 15 10 8 0 15 5 15 11 0 5 4 8 8 5 5 -3 21 2 36 10 16 8 39 16 51 18
13 2 34 10 47 17 12 7 24 11 26 10 1 -1 15 0 30 3 15 3 49 8 76 11 28 3 51 7
52 8 3 2 129 0 129 -3z"/>
<path d="M3927 6783 c-4 -3 -17 -7 -29 -8 -34 -3 -108 -38 -108 -51 0 -7 -7
-14 -15 -18 -8 -3 -15 -12 -15 -21 0 -8 -4 -15 -10 -15 -30 0 -32 -92 -31
-1225 1 -627 2 -1153 1 -1168 0 -16 3 -26 7 -24 5 3 8 -14 9 -36 1 -55 12
-115 24 -137 6 -10 10 -28 10 -39 0 -12 5 -21 11 -21 5 0 8 -4 5 -9 -3 -4 6
-31 19 -60 14 -28 25 -53 25 -56 0 -3 11 -23 25 -45 14 -22 22 -40 18 -40 -4
0 3 -9 15 -20 12 -12 22 -25 22 -30 0 -6 8 -19 18 -29 9 -11 28 -33 42 -50 48
-60 68 -80 74 -74 3 4 6 2 6 -4 0 -12 34 -53 44 -53 12 0 36 -27 31 -34 -3 -3
-2 -4 1 -2 3 3 35 -16 72 -40 78 -54 197 -116 206 -107 3 4 6 1 6 -5 0 -7 9
-12 19 -12 11 0 22 -4 26 -10 3 -5 12 -7 19 -4 8 3 17 0 21 -5 3 -6 11 -9 16
-6 5 4 9 2 9 -2 0 -5 14 -10 32 -11 18 -2 34 -5 37 -7 2 -3 5 -564 5 -1248 1
-722 5 -1248 10 -1256 7 -10 6 -12 -3 -6 -10 6 -11 3 -2 -14 7 -11 10 -21 7
-21 -3 0 0 -15 5 -32 6 -18 12 -44 15 -58 3 -14 9 -29 15 -35 5 -5 9 -17 9
-27 0 -10 5 -18 11 -18 5 0 7 -4 4 -10 -3 -5 -2 -10 3 -10 9 0 25 -37 23 -53
-1 -4 6 -7 15 -7 8 0 13 -4 10 -9 -3 -4 8 -21 24 -37 16 -16 30 -35 30 -43 0
-8 3 -12 6 -8 3 3 18 -6 33 -21 38 -37 70 -62 79 -62 5 0 18 -9 30 -20 12 -12
22 -18 22 -14 0 3 10 0 23 -8 12 -8 45 -23 72 -32 47 -16 68 -21 137 -30 15
-2 32 -7 37 -11 6 -3 11 -3 11 2 0 4 28 7 62 7 63 -2 157 16 191 37 11 6 21 8
24 5 3 -3 12 2 20 10 9 8 22 13 30 10 8 -3 12 -2 9 3 -3 4 17 18 44 31 27 13
47 27 44 32 -3 4 0 8 6 8 6 0 24 13 39 29 16 16 32 27 35 24 3 -4 6 -1 6 5 0
11 8 22 54 75 24 29 85 154 78 161 -3 3 1 6 8 6 7 0 10 3 7 6 -3 4 -1 16 5 28
6 11 12 39 14 61 1 22 3 40 4 40 2 0 4 564 5 1252 0 689 3 1255 6 1257 2 3 16
6 31 8 15 2 30 7 34 10 3 4 12 4 20 1 8 -3 14 0 14 6 0 6 3 10 8 10 16 -3 72
14 72 22 0 5 3 8 8 8 4 -1 10 0 15 1 4 1 10 3 15 5 25 7 61 25 67 35 3 5 10 8
15 5 4 -3 13 2 20 10 7 8 16 12 21 9 5 -3 9 -1 9 4 0 6 17 20 37 32 55 32 152
113 152 128 1 6 8 12 16 12 9 0 20 11 27 25 6 13 15 22 19 19 5 -3 9 0 9 5 0
6 9 21 20 34 36 40 45 52 60 82 8 17 22 37 31 45 9 8 14 21 12 28 -3 6 0 12 5
12 9 0 25 37 23 53 -1 4 3 7 8 7 5 0 15 20 22 45 7 25 17 45 22 45 4 0 6 4 3
9 -3 4 3 30 12 57 10 27 17 56 17 64 -1 8 2 20 5 25 4 6 6 29 6 52 -1 22 2 39
6 37 8 -5 9 125 9 1326 0 547 -3 1011 -7 1030 -3 19 -14 47 -25 61 -10 15 -19
31 -19 36 0 5 -16 17 -35 27 -19 11 -35 23 -35 28 0 5 -4 7 -9 3 -5 -3 -12 -2
-15 3 -6 10 -136 13 -136 3 0 -4 -10 -7 -22 -8 -11 -1 -25 -8 -29 -15 -5 -7
-9 -9 -9 -5 0 11 -50 -44 -50 -55 0 -5 -4 -6 -10 -3 -5 3 -10 -3 -10 -14 0
-11 -5 -23 -10 -26 -6 -4 -8 -11 -5 -16 4 -5 2 -9 -2 -9 -5 0 -9 -516 -10
-1147 0 -632 -4 -1170 -8 -1198 -4 -27 -8 -56 -8 -62 0 -7 -4 -13 -9 -13 -4 0
-7 -3 -6 -7 3 -16 -23 -93 -32 -93 -5 0 -6 -7 -3 -17 4 -11 3 -14 -5 -9 -7 4
-12 1 -12 -9 0 -18 -67 -111 -109 -152 -61 -59 -148 -121 -163 -115 -5 1 -8
-2 -8 -6 0 -5 -26 -17 -57 -28 -32 -10 -60 -22 -63 -25 -3 -3 -20 -6 -38 -5
-17 1 -32 -2 -32 -5 0 -3 -15 -5 -32 -4 -18 1 -37 -1 -42 -3 -5 -3 -27 -6 -50
-8 -61 -5 -66 -7 -66 -16 0 -5 -4 -7 -8 -4 -5 3 -24 -10 -43 -27 -35 -32 -75
-87 -63 -87 4 0 2 -6 -5 -13 -7 -10 -11 -402 -11 -1368 -1 -1011 -4 -1364 -13
-1393 -11 -35 -84 -125 -104 -127 -11 -2 -29 -8 -50 -16 -22 -8 -93 -10 -93
-3 0 3 -11 7 -25 8 -27 2 -29 3 -86 55 -33 29 -56 70 -51 90 1 4 -2 7 -7 7 -6
0 -10 510 -10 1353 0 743 -2 1361 -5 1372 -2 11 -5 22 -6 25 -1 3 -2 8 -1 13
0 4 -4 7 -10 7 -5 0 -8 4 -5 9 8 12 -62 83 -96 98 -15 7 -49 15 -75 19 -27 3
-50 8 -52 10 -2 2 -12 -1 -22 -6 -12 -7 -20 -6 -24 1 -4 6 -13 8 -21 5 -7 -3
-16 -1 -19 4 -3 4 -16 7 -30 5 -14 -1 -25 2 -25 7 0 6 -7 8 -15 4 -8 -3 -15
-1 -15 5 0 6 -4 8 -9 4 -5 -3 -15 0 -23 7 -7 7 -22 15 -33 16 -32 6 -91 42
-131 80 -8 7 -14 11 -14 8 0 -2 -22 16 -48 42 -26 26 -46 50 -45 53 2 4 -4 10
-13 13 -9 4 -14 9 -11 13 4 3 1 11 -7 17 -35 28 -100 184 -110 266 -3 19 -5
37 -6 40 -6 16 -4 36 5 42 7 5 7 8 0 8 -7 0 -10 377 -9 1112 0 630 -4 1128 -9
1147 -10 37 -57 114 -65 107 -2 -3 -13 5 -23 17 -10 12 -18 18 -19 13 0 -5 -6
-4 -13 2 -7 6 -28 14 -47 17 -18 3 -36 8 -40 10 -4 3 -10 2 -13 -2z"/>
<path d="M4790 6778 c-25 -4 -51 -9 -57 -10 -7 -1 -13 -5 -13 -10 0 -5 -4 -6
-10 -3 -5 3 -10 1 -10 -4 0 -6 -5 -11 -11 -11 -21 0 -61 -55 -85 -115 -11 -27
-13 -2295 -2 -2295 4 0 7 -3 6 -7 -5 -20 15 -73 27 -73 8 0 17 -9 20 -20 3
-11 11 -20 16 -20 6 0 7 -4 4 -10 -3 -5 3 -10 14 -10 11 0 23 -4 26 -10 3 -5
17 -10 31 -10 13 0 24 -4 24 -8 0 -5 15 -8 33 -7 53 3 107 17 107 27 0 5 3 7
8 5 4 -3 27 15 51 39 24 24 40 44 36 44 -4 0 -2 7 5 15 7 8 10 21 7 29 -3 7
-1 18 5 24 7 7 10 375 10 1131 0 923 -3 1125 -14 1138 -9 12 -9 15 0 9 17 -10
15 9 -3 27 -8 8 -12 17 -9 20 7 6 -72 87 -85 87 -6 0 -11 4 -11 8 0 5 -6 9
-12 10 -20 1 -42 7 -53 13 -5 3 -30 2 -55 -3z"/>
<path d="M5660 6780 c-8 -6 -25 -10 -37 -10 -13 0 -23 -5 -23 -11 0 -5 -4 -7
-10 -4 -5 3 -10 1 -10 -5 0 -6 -4 -9 -9 -6 -9 6 -71 -58 -71 -74 0 -5 -4 -10
-10 -10 -5 0 -7 -6 -4 -14 3 -8 1 -17 -5 -21 -17 -10 -15 -2287 1 -2303 9 -9
9 -12 0 -12 -7 0 2 -22 20 -49 18 -27 36 -47 39 -45 4 2 9 -3 13 -11 3 -8 12
-15 20 -15 8 0 16 -5 18 -11 2 -6 16 -11 31 -11 15 0 27 -3 27 -7 0 -8 77 -5
108 4 12 4 22 11 22 16 0 5 3 8 8 7 13 -4 62 34 62 49 0 8 4 12 9 8 5 -3 15
10 21 29 6 19 16 37 23 40 9 5 9 7 -1 12 -6 3 -9 11 -5 17 10 15 11 2267 2
2267 -4 0 -7 8 -6 19 1 24 -62 108 -88 117 -11 4 -23 11 -26 16 -3 5 -26 10
-50 11 -24 1 -46 5 -49 9 -3 4 -12 3 -20 -2z"/>
</g>
</svg>
