<svg width="20" height="18" viewBox="0 0 20 18" fill="none" xmlns="http://www.w3.org/2000/svg">
<path fill-rule="evenodd" clip-rule="evenodd" d="M10.0487 17.0348C8.22086 15.9098 6.52041 14.5858 4.97782 13.0865C3.89332 12.0067 3.06769 10.6903 2.56419 9.23822C1.65812 6.42131 2.71647 3.19649 5.67831 2.24212C7.23494 1.741 8.93501 2.02741 10.2467 3.01177C11.5589 2.02861 13.2584 1.7423 14.8151 2.24212C17.777 3.19649 18.8429 6.42131 17.9368 9.23822C17.4333 10.6903 16.6077 12.0067 15.5232 13.0865C13.9806 14.5858 12.2802 15.9098 10.4523 17.0348L10.2543 17.1579L10.0487 17.0348Z" stroke="#828998" stroke-width="1.5" stroke-linecap="round" stroke-linejoin="round"/>
<path d="M13.3984 5.41309C14.2955 5.69965 14.9329 6.50505 15.0126 7.45265" stroke="#828998" stroke-width="1.5" stroke-linecap="round" stroke-linejoin="round"/>
</svg>
